<?xml version="1.0" encoding="UTF-8" standalone="no"?>
<!-- Created with Inkscape (http://www.inkscape.org/) -->

<svg
   version="1.1"
   id="svg1"
   width="136.06267"
   height="90.708"
   viewBox="0 0 136.06267 90.708"
   sodipodi:docname="ph.pdf"
   xmlns:inkscape="http://www.inkscape.org/namespaces/inkscape"
   xmlns:sodipodi="http://sodipodi.sourceforge.net/DTD/sodipodi-0.dtd"
   xmlns="http://www.w3.org/2000/svg"
   xmlns:svg="http://www.w3.org/2000/svg">
  <defs
     id="defs1">
    <clipPath
       clipPathUnits="userSpaceOnUse"
       id="clipPath2">
      <path
         d="M -51.02426,-34.01617 V 34.01619 H 51.02428 v -68.03236 z"
         id="path2" />
    </clipPath>
    <clipPath
       clipPathUnits="userSpaceOnUse"
       id="clipPath4">
      <path
         d="M -51.02426,-34.01617 V 34.01619 H 51.02428 v -68.03236 z"
         id="path4" />
    </clipPath>
    <clipPath
       clipPathUnits="userSpaceOnUse"
       id="clipPath6">
      <path
         d="M -51.02426,-34.01617 V 34.01619 H 51.02428 v -68.03236 z"
         id="path6" />
    </clipPath>
    <clipPath
       clipPathUnits="userSpaceOnUse"
       id="clipPath8">
      <path
         d="M -51.02426,-34.01617 V 34.01619 H 51.02428 v -68.03236 z"
         id="path8" />
    </clipPath>
    <clipPath
       clipPathUnits="userSpaceOnUse"
       id="clipPath10">
      <path
         d="M -51.02426,-34.01617 V 34.01619 H 51.02428 v -68.03236 z"
         id="path10" />
    </clipPath>
    <clipPath
       clipPathUnits="userSpaceOnUse"
       id="clipPath12">
      <path
         d="M -51.02426,-34.01617 V 34.01619 H 51.02428 v -68.03236 z"
         id="path12" />
    </clipPath>
    <clipPath
       clipPathUnits="userSpaceOnUse"
       id="clipPath14">
      <path
         d="M -51.02426,-34.01617 V 34.01619 H 51.02428 v -68.03236 z"
         id="path14" />
    </clipPath>
    <clipPath
       clipPathUnits="userSpaceOnUse"
       id="clipPath16">
      <path
         d="M -15.49767,0 -29.85966,14.36198 -44.22165,0 -29.85966,-14.36198 Z"
         id="path16" />
    </clipPath>
    <clipPath
       clipPathUnits="userSpaceOnUse"
       id="clipPath18">
      <path
         d="M -15.49767,0 -29.85966,14.36198 -44.22165,0 -29.85966,-14.36198 Z"
         id="path18" />
    </clipPath>
    <clipPath
       clipPathUnits="userSpaceOnUse"
       id="clipPath20">
      <path
         d="M -15.49767,0 -29.85966,14.36198 -44.22165,0 -29.85966,-14.36198 Z"
         id="path20" />
    </clipPath>
    <clipPath
       clipPathUnits="userSpaceOnUse"
       id="clipPath22">
      <path
         d="M -15.49767,0 -29.85966,14.36198 -44.22165,0 -29.85966,-14.36198 Z"
         id="path22" />
    </clipPath>
    <clipPath
       clipPathUnits="userSpaceOnUse"
       id="clipPath24">
      <path
         d="M -15.49767,0 -29.85966,14.36198 -44.22165,0 -29.85966,-14.36198 Z"
         id="path24" />
    </clipPath>
    <clipPath
       clipPathUnits="userSpaceOnUse"
       id="clipPath26">
      <path
         d="M -15.49767,0 -29.85966,14.36198 -44.22165,0 -29.85966,-14.36198 Z"
         id="path26" />
    </clipPath>
    <clipPath
       clipPathUnits="userSpaceOnUse"
       id="clipPath28">
      <path
         d="M -15.49767,0 -29.85966,14.36198 -44.22165,0 -29.85966,-14.36198 Z"
         id="path28" />
    </clipPath>
    <clipPath
       clipPathUnits="userSpaceOnUse"
       id="clipPath30">
      <path
         d="M -15.49767,0 -29.85966,14.36198 -44.22165,0 -29.85966,-14.36198 Z"
         id="path30" />
    </clipPath>
    <clipPath
       clipPathUnits="userSpaceOnUse"
       id="clipPath32">
      <path
         d="M -15.49767,0 -29.85966,14.36198 -44.22165,0 -29.85966,-14.36198 Z"
         id="path32" />
    </clipPath>
    <clipPath
       clipPathUnits="userSpaceOnUse"
       id="clipPath34">
      <path
         d="M -15.49767,0 -29.85966,14.36198 -44.22165,0 -29.85966,-14.36198 Z"
         id="path34" />
    </clipPath>
    <clipPath
       clipPathUnits="userSpaceOnUse"
       id="clipPath36">
      <path
         d="M -15.49767,0 -29.85966,14.36198 -44.22165,0 -29.85966,-14.36198 Z"
         id="path36" />
    </clipPath>
    <clipPath
       clipPathUnits="userSpaceOnUse"
       id="clipPath38">
      <path
         d="M -15.49767,0 -29.85966,14.36198 -44.22165,0 -29.85966,-14.36198 Z"
         id="path38" />
    </clipPath>
    <clipPath
       clipPathUnits="userSpaceOnUse"
       id="clipPath40">
      <path
         d="m -19.70505,10.1546 h -20.30922 v -20.3092 h 20.30922 z"
         id="path40" />
    </clipPath>
    <clipPath
       clipPathUnits="userSpaceOnUse"
       id="clipPath42">
      <path
         d="m -19.70505,10.1546 h -20.30922 v -20.3092 h 20.30922 z"
         id="path42" />
    </clipPath>
    <clipPath
       clipPathUnits="userSpaceOnUse"
       id="clipPath44">
      <path
         d="m -19.70505,10.1546 h -20.30922 v -20.3092 h 20.30922 z"
         id="path44" />
    </clipPath>
    <clipPath
       clipPathUnits="userSpaceOnUse"
       id="clipPath46">
      <path
         d="m -19.70505,10.1546 h -20.30922 v -20.3092 h 20.30922 z"
         id="path46" />
    </clipPath>
    <clipPath
       clipPathUnits="userSpaceOnUse"
       id="clipPath48">
      <path
         d="m -19.70505,10.1546 h -20.30922 v -20.3092 h 20.30922 z"
         id="path48" />
    </clipPath>
    <clipPath
       clipPathUnits="userSpaceOnUse"
       id="clipPath50">
      <path
         d="m -19.70505,10.1546 h -20.30922 v -20.3092 h 20.30922 z"
         id="path50" />
    </clipPath>
    <clipPath
       clipPathUnits="userSpaceOnUse"
       id="clipPath52">
      <path
         d="m -19.70505,10.1546 h -20.30922 v -20.3092 h 20.30922 z"
         id="path52" />
    </clipPath>
    <clipPath
       clipPathUnits="userSpaceOnUse"
       id="clipPath54">
      <path
         d="m -19.70505,10.1546 h -20.30922 v -20.3092 h 20.30922 z"
         id="path54" />
    </clipPath>
    <clipPath
       clipPathUnits="userSpaceOnUse"
       id="clipPath56">
      <path
         d="m -19.70505,10.1546 h -20.30922 v -20.3092 h 20.30922 z"
         id="path56" />
    </clipPath>
    <clipPath
       clipPathUnits="userSpaceOnUse"
       id="clipPath58">
      <path
         d="m -19.70505,10.1546 h -20.30922 v -20.3092 h 20.30922 z"
         id="path58" />
    </clipPath>
    <clipPath
       clipPathUnits="userSpaceOnUse"
       id="clipPath60">
      <path
         d="m -19.70505,10.1546 h -20.30922 v -20.3092 h 20.30922 z"
         id="path60" />
    </clipPath>
    <clipPath
       clipPathUnits="userSpaceOnUse"
       id="clipPath62">
      <path
         d="m -19.70505,10.1546 h -20.30922 v -20.3092 h 20.30922 z"
         id="path62" />
    </clipPath>
  </defs>
  <sodipodi:namedview
     id="namedview1"
     pagecolor="#ffffff"
     bordercolor="#000000"
     borderopacity="0.25"
     inkscape:showpageshadow="2"
     inkscape:pageopacity="0.0"
     inkscape:pagecheckerboard="0"
     inkscape:deskcolor="#d1d1d1">
    <inkscape:page
       x="0"
       y="0"
       inkscape:label="1"
       id="page1"
       width="136.06267"
       height="90.708"
       margin="0"
       bleed="0" />
  </sodipodi:namedview>
  <g
     id="g1"
     inkscape:groupmode="layer"
     inkscape:label="1">
    <path
       id="path1"
       d="M -51.02426,0 V 34.01619 H 51.02428 V 0 Z"
       style="fill:#0033a0;fill-opacity:1;fill-rule:nonzero;stroke:none"
       transform="matrix(1.3333333,0,0,-1.3333333,68.032,45.353333)"
       clip-path="url(#clipPath2)" />
    <path
       id="path3"
       d="M -51.02426,-34.01617 V 0 H 51.02428 v -34.01617 z"
       style="fill:#bf0d37;fill-opacity:1;fill-rule:nonzero;stroke:none"
       transform="matrix(1.3333333,0,0,-1.3333333,68.032,45.353333)"
       clip-path="url(#clipPath4)" />
    <path
       id="path5"
       d="M -51.02426,-34.01617 7.89363,0 -51.02426,34.01619 Z"
       style="fill:#ffffff;fill-opacity:1;fill-rule:nonzero;stroke:none"
       transform="matrix(1.3333333,0,0,-1.3333333,68.032,45.353333)"
       clip-path="url(#clipPath6)" />
    <path
       id="path7"
       d="m -47.62244,-28.12431 2.04014,1.83738 2.37762,-1.37306 -1.11705,2.50809 2.04057,1.83694 -2.7305,-0.28732 -1.11642,2.50833 -0.57056,-2.68565 -2.73059,-0.28667 2.37793,-1.37253 z"
       style="fill:#fed141;fill-opacity:1;fill-rule:nonzero;stroke:none"
       transform="matrix(1.3333333,0,0,-1.3333333,68.032,45.353333)"
       clip-path="url(#clipPath8)" />
    <path
       id="path9"
       d="m -47.62244,28.12433 0.57114,-2.68552 -2.37793,-1.37253 2.73059,-0.28666 0.57056,-2.68566 1.11642,2.50834 2.7305,-0.28733 -2.04057,1.83695 1.11705,2.50808 -2.37762,-1.37306 z"
       style="fill:#fed141;fill-opacity:1;fill-rule:nonzero;stroke:none"
       transform="matrix(1.3333333,0,0,-1.3333333,68.032,45.353333)"
       clip-path="url(#clipPath10)" />
    <path
       id="path11"
       d="M 1.09,0 -1.52129,0.84813 -1.52097,3.59372 -3.13454,1.37231 -5.74564,2.22102 -4.13159,0 l -1.61405,-2.22102 2.6111,0.84871 1.61357,-2.22141 -3.2e-4,2.74559 z"
       style="fill:#fed141;fill-opacity:1;fill-rule:nonzero;stroke:none"
       transform="matrix(1.3333333,0,0,-1.3333333,68.032,45.353333)"
       clip-path="url(#clipPath12)" />
    <path
       id="path13"
       d="m -23.05602,0 c 0,3.75758 -3.04605,6.80363 -6.80364,6.80363 -3.75759,0 -6.80364,-3.04605 -6.80364,-6.80363 0,-3.75758 3.04605,-6.80363 6.80364,-6.80363 3.75759,0 6.80364,3.04605 6.80364,6.80363 z"
       style="fill:#fed141;fill-opacity:1;fill-rule:nonzero;stroke:none"
       transform="matrix(1.3333333,0,0,-1.3333333,68.032,45.353333)"
       clip-path="url(#clipPath14)" />
    <path
       id="path15"
       d="M -29.85966,0 4.08176,2.22462 v -4.44924 z"
       style="fill:#fed141;fill-opacity:1;fill-rule:nonzero;stroke:none"
       transform="matrix(1.3333333,0,0,-1.3333333,68.032,45.353333)"
       clip-path="url(#clipPath16)" />
    <path
       id="path17"
       d="M -29.85966,0 3.86375,4.43886 3.50146,6.63545 Z"
       style="fill:#fed141;fill-opacity:1;fill-rule:nonzero;stroke:none"
       transform="matrix(1.3333333,0,0,-1.3333333,68.032,45.353333)"
       clip-path="url(#clipPath18)" />
    <path
       id="path19"
       d="M -29.85966,0 3.86375,-4.43886 3.50146,-6.63545 Z"
       style="fill:#fed141;fill-opacity:1;fill-rule:nonzero;stroke:none"
       transform="matrix(1.3333333,0,0,-1.3333333,68.032,45.353333)"
       clip-path="url(#clipPath20)" />
    <path
       id="path21"
       d="m -29.85966,0 -2.22463,33.94142 h 4.44926 z"
       style="fill:#fed141;fill-opacity:1;fill-rule:nonzero;stroke:none"
       transform="matrix(1.3333333,0,0,-1.3333333,68.032,45.353333)"
       clip-path="url(#clipPath22)" />
    <path
       id="path23"
       d="m -29.85966,0 -4.43886,33.72342 -2.1966,-0.36229 z"
       style="fill:#fed141;fill-opacity:1;fill-rule:nonzero;stroke:none"
       transform="matrix(1.3333333,0,0,-1.3333333,68.032,45.353333)"
       clip-path="url(#clipPath24)" />
    <path
       id="path25"
       d="m -29.85966,0 4.43887,33.72342 2.19659,-0.36229 z"
       style="fill:#fed141;fill-opacity:1;fill-rule:nonzero;stroke:none"
       transform="matrix(1.3333333,0,0,-1.3333333,68.032,45.353333)"
       clip-path="url(#clipPath26)" />
    <path
       id="path27"
       d="M -29.85966,0 -63.80109,-2.22462 V 2.22462 Z"
       style="fill:#fed141;fill-opacity:1;fill-rule:nonzero;stroke:none"
       transform="matrix(1.3333333,0,0,-1.3333333,68.032,45.353333)"
       clip-path="url(#clipPath28)" />
    <path
       id="path29"
       d="m -29.85966,0 -33.72342,-4.43886 0.36228,-2.19659 z"
       style="fill:#fed141;fill-opacity:1;fill-rule:nonzero;stroke:none"
       transform="matrix(1.3333333,0,0,-1.3333333,68.032,45.353333)"
       clip-path="url(#clipPath30)" />
    <path
       id="path31"
       d="m -29.85966,0 -33.72342,4.43886 0.36228,2.19659 z"
       style="fill:#fed141;fill-opacity:1;fill-rule:nonzero;stroke:none"
       transform="matrix(1.3333333,0,0,-1.3333333,68.032,45.353333)"
       clip-path="url(#clipPath32)" />
    <path
       id="path33"
       d="m -29.85966,0 2.22463,-33.94142 h -4.44926 z"
       style="fill:#fed141;fill-opacity:1;fill-rule:nonzero;stroke:none"
       transform="matrix(1.3333333,0,0,-1.3333333,68.032,45.353333)"
       clip-path="url(#clipPath34)" />
    <path
       id="path35"
       d="m -29.85966,0 4.43887,-33.72342 2.19659,0.36229 z"
       style="fill:#fed141;fill-opacity:1;fill-rule:nonzero;stroke:none"
       transform="matrix(1.3333333,0,0,-1.3333333,68.032,45.353333)"
       clip-path="url(#clipPath36)" />
    <path
       id="path37"
       d="m -29.85966,0 -4.43886,-33.72342 -2.1966,0.36229 z"
       style="fill:#fed141;fill-opacity:1;fill-rule:nonzero;stroke:none"
       transform="matrix(1.3333333,0,0,-1.3333333,68.032,45.353333)"
       clip-path="url(#clipPath38)" />
    <path
       id="path39"
       d="m -29.85966,0 22.42797,25.57336 3.1454,-3.1454 z"
       style="fill:#fed141;fill-opacity:1;fill-rule:nonzero;stroke:none"
       transform="matrix(1.3333333,0,0,-1.3333333,68.032,45.353333)"
       clip-path="url(#clipPath40)" />
    <path
       id="path41"
       d="m -29.85966,0 20.7068,26.98518 -1.80939,1.29657 z"
       style="fill:#fed141;fill-opacity:1;fill-rule:nonzero;stroke:none"
       transform="matrix(1.3333333,0,0,-1.3333333,68.032,45.353333)"
       clip-path="url(#clipPath42)" />
    <path
       id="path43"
       d="M -29.85966,0 -2.87448,20.70679 -1.5779,18.8974 Z"
       style="fill:#fed141;fill-opacity:1;fill-rule:nonzero;stroke:none"
       transform="matrix(1.3333333,0,0,-1.3333333,68.032,45.353333)"
       clip-path="url(#clipPath44)" />
    <path
       id="path45"
       d="m -29.85966,0 -25.57337,22.42796 3.1454,3.1454 z"
       style="fill:#fed141;fill-opacity:1;fill-rule:nonzero;stroke:none"
       transform="matrix(1.3333333,0,0,-1.3333333,68.032,45.353333)"
       clip-path="url(#clipPath46)" />
    <path
       id="path47"
       d="M -29.85966,0 -56.84485,20.70679 -58.14142,18.8974 Z"
       style="fill:#fed141;fill-opacity:1;fill-rule:nonzero;stroke:none"
       transform="matrix(1.3333333,0,0,-1.3333333,68.032,45.353333)"
       clip-path="url(#clipPath48)" />
    <path
       id="path49"
       d="m -29.85966,0 -20.70679,26.98518 1.80939,1.29657 z"
       style="fill:#fed141;fill-opacity:1;fill-rule:nonzero;stroke:none"
       transform="matrix(1.3333333,0,0,-1.3333333,68.032,45.353333)"
       clip-path="url(#clipPath50)" />
    <path
       id="path51"
       d="m -29.85966,0 -22.42797,-25.57336 -3.1454,3.1454 z"
       style="fill:#fed141;fill-opacity:1;fill-rule:nonzero;stroke:none"
       transform="matrix(1.3333333,0,0,-1.3333333,68.032,45.353333)"
       clip-path="url(#clipPath52)" />
    <path
       id="path53"
       d="m -29.85966,0 -20.70679,-26.98518 1.80939,-1.29657 z"
       style="fill:#fed141;fill-opacity:1;fill-rule:nonzero;stroke:none"
       transform="matrix(1.3333333,0,0,-1.3333333,68.032,45.353333)"
       clip-path="url(#clipPath54)" />
    <path
       id="path55"
       d="m -29.85966,0 -26.98519,-20.70679 -1.29657,1.80939 z"
       style="fill:#fed141;fill-opacity:1;fill-rule:nonzero;stroke:none"
       transform="matrix(1.3333333,0,0,-1.3333333,68.032,45.353333)"
       clip-path="url(#clipPath56)" />
    <path
       id="path57"
       d="m -29.85966,0 25.57337,-22.42796 -3.1454,-3.1454 z"
       style="fill:#fed141;fill-opacity:1;fill-rule:nonzero;stroke:none"
       transform="matrix(1.3333333,0,0,-1.3333333,68.032,45.353333)"
       clip-path="url(#clipPath58)" />
    <path
       id="path59"
       d="m -29.85966,0 26.98518,-20.70679 1.29658,1.80939 z"
       style="fill:#fed141;fill-opacity:1;fill-rule:nonzero;stroke:none"
       transform="matrix(1.3333333,0,0,-1.3333333,68.032,45.353333)"
       clip-path="url(#clipPath60)" />
    <path
       id="path61"
       d="m -29.85966,0 20.7068,-26.98518 -1.80939,-1.29657 z"
       style="fill:#fed141;fill-opacity:1;fill-rule:nonzero;stroke:none"
       transform="matrix(1.3333333,0,0,-1.3333333,68.032,45.353333)"
       clip-path="url(#clipPath62)" />
  </g>
</svg>
