<svg xmlns="http://www.w3.org/2000/svg" viewBox="0 0 1000 700"><g fill="#E9EEF7" stroke="#26364A" stroke-width="4" stroke-linejoin="round"><path d="M 874.37,298.28 L 780.45,292.19 L 650.89,300.30 L 586.73,335.59 L 610.46,386.84 L 520.51,367.35 L 434.81,368.14 L 449.50,334.80 L 361.26,335.05 L 353.34,381.73 L 299.25,443.72 L 266.67,481.21 L 273.55,511.93 L 338.82,513.26 L 379.48,551.99 L 397.48,588.73 L 453.39,613.04 L 514.09,617.97 L 566.00,640.00 L 533.25,657.43 L 467.11,662.50 L 459.22,640.71 L 377.47,622.12 L 360.05,629.69 L 320.47,613.40 L 303.33,592.39 L 250.09,568.43 L 201.54,548.30 L 185.10,573.24 L 166.10,549.67 L 177.03,523.19 L 206.53,482.48 L 255.08,438.87 L 310.11,399.31 L 270.94,360.60 L 272.51,340.89 L 261.06,317.20 L 194.23,283.48 L 170.31,262.19 L 204.91,254.34 L 241.58,217.45 L 200.54,189.44 L 136.95,158.45 L 88.53,121.21 L 130.80,113.50 L 176.49,67.62 L 247.22,65.72 L 305.70,47.31 L 363.08,37.50 L 406.46,50.60 L 412.21,76.10 L 479.92,78.04 L 455.26,122.76 L 457.62,160.80 L 563.24,135.48 L 593.24,142.97 L 651.92,141.74 L 672.11,126.97 L 747.89,129.89 L 824.09,164.35 L 830.34,206.24 L 911.47,243.23 L 906.99,279.15 L 874.37,298.28 Z"/></g></svg>